PathFileType	4	(X/Y/Z)	C:/Users/beibeiliu/ov580/test_trc/User3\sequence.42_training_dense_left.trc
DataRate	CameraRate	NumFrames	NumMarkers	Units	OrigDataRate	OrigDataStartFrame	OrigNumFrames
120	120	18	19	mm	120	1	101
Frame#	Time	ThumbCMC			ThumbMCP			ThumbIP			ThumbTip			IndexMCP			IndexPIP			IndexTip			MiddleMCP			MiddlePIP			MiddleTip			RingMCP			RingPIP			RingTip			PinkyMCP			PinkyPIP			PinkyTip			BackHand1			BackHand2			BackHand3	
		X0	Y0	Z0	X1	Y1	Z1	X2	Y2	Z2	X3	Y3	Z3	X4	Y4	Z4	X5	Y5	Z5	X6	Y6	Z6	X7	Y7	Z7	X8	Y8	Z8	X9	Y9	Z9	X10	Y10	Z10	X11	Y11	Z11	X12	Y12	Z12	X13	Y13	Z13	X14	Y14	Z14	X15	Y15	Z15	X16	Y16	Z16	X17	Y17	Z17	X18	Y18	Z18	
0	0	-66.4996	45.2079	65.6332	-46.8916	37.218	46.239	-24.0371	33.1062	26.4021	-10.2619	25.6803	5.23101	-86.0667	60.6313	-10.8938	-76.6095	59.626	-37.0094	-69.8843	52.5803	-67.1401	-111.175	60.5643	-17.7631	-111.752	57.4253	-47.6734	-111.55	42.7937	-77.8168	-130.333	51.4866	-12.4003	-134.948	48.0535	-35.074	-138.742	34.6043	-60.3262	-152.106	38.8696	3.95506	-157.494	33.1568	-14.5214	-158.942	23.1207	-38.6146	-129.899	62.0503	38.9952	-131.079	61.1601	73.9768	-98.5129	66.2718	54.062	
1	0.00833333	-69.1327	45.1543	63.0587	-47.2108	38.8509	44.6487	-30.5275	32.751	23.7678	-12.7852	25.68	4.83223	-87.934	61.4287	-12.6628	-79.6937	60.2812	-41.7579	-73.8531	51.9376	-68.428	-111.978	61.4297	-20.3618	-112.18	58.8842	-45.3888	-113.114	43.5483	-78.0168	-135.802	51.4901	-10.1654	-135.083	47.7928	-35.6508	-139.179	32.604	-65.2179	-150.165	38.6747	7.44149	-159.547	31.5462	-19.5812	-163.235	22.779	-37.8359	-133.154	60.3944	42.4783	-131.721	62.5831	70.9863	-99.0303	66.0157	52.066	
2	0.0166667	-70.4796	42.2246	66.2605	-50.7533	36.027	47.9509	-27.7927	30.877	22.5873	-17.142	23.9594	9.17109	-83.1977	59.7253	-14.3854	-80.8237	58.101	-38.1357	-71.2835	52.0784	-62.8669	-114.723	59.4833	-15.7101	-112.972	56.4897	-45.1687	-110.587	43.6049	-75.542	-130.948	50.5967	-7.40235	-135.892	44.7894	-38.6666	-140.107	31.223	-62.9441	-152.498	38.0286	7.22445	-159.961	30.3478	-16.4672	-161.214	19.7406	-36.521	-134.549	59.2679	43.0382	-131.756	59.1747	71.6741	-101.212	63.3823	56.2025	
3	0.025	-67.3262	41.8317	63.0381	-50.9901	34.557	45.7708	-30.3786	29.2856	24.7737	-16.7485	22.7263	11.6657	-86.0542	57.6267	-12.9655	-76.3834	56.9785	-39.9192	-76.7943	50.5337	-61.1154	-112.339	57.799	-13.4186	-113.344	54.5304	-46.1963	-113.145	41.3306	-74.9876	-130.795	49.124	-9.1924	-136.52	43.4362	-36.4672	-137.665	32.7465	-58.1823	-147.753	35.9165	8.83818	-156.029	31.035	-16.0462	-162.324	20.1058	-36.6076	-132.905	56.6666	40.89	-135.931	57.1116	71.5571	-100.122	62.4247	54.2697	
4	0.0333333	-71.0488	39.8133	65.3151	-48.6766	33.7538	43.2132	-27.3878	28.1122	25.6756	-13.512	21.1825	9.00903	-83.1685	57.4143	-10.2159	-78.025	56.9875	-36.0622	-71.6968	51.143	-61.5464	-110.377	58.6045	-19.8626	-110.642	52.4984	-49.197	-110.91	41.2328	-74.7252	-135.105	46.2767	-8.64399	-135.674	42.3577	-38.6182	-139.812	27.8011	-62.0262	-153.161	33.7535	6.55265	-154.854	29.6187	-14.9664	-162.835	18.1425	-36.8482	-133.224	57.4372	40.9508	-129.625	58.096	69.3338	-100.07	60.7514	53.2507	
5	0.0416667	-70.7296	38.7827	59.849	-50.716	32.1281	42.1995	-30.2591	26.4231	19.6769	-14.7325	18.6876	5.22207	-83.8717	55.9737	-10.0764	-82.1213	54.5885	-41.4759	-74.2687	49.2934	-62.8176	-115.774	55.7339	-19.3845	-113.329	52.7659	-47.3464	-116.128	38.7693	-75.975	-137.296	44.8424	-9.12502	-140.803	39.716	-38.2099	-143.9	27.3008	-59.4394	-152.53	33.7506	6.48803	-157.203	28.4436	-13.238	-164.758	14.5619	-35.0492	-130.491	56.0064	43.7388	-132.259	55.3618	70.8984	-97.4322	59.7666	53.5837	
6	0.05	-71.3871	36.6366	59.9677	-51.425	28.8186	41.0064	-36.3324	20.4393	22.28	-22.902	13.8099	3.74549	-91.3627	53.8415	-15.6436	-82.9773	52.4188	-37.4456	-81.0089	46.1791	-63.569	-120.406	54.1173	-19.559	-116.977	51.9149	-44.8144	-118.702	38.4871	-78.1956	-136.177	43.872	-7.21055	-143.374	38.979	-35.1017	-145.19	26.0479	-63.4129	-158.483	30.9623	6.97792	-164.061	23.8222	-17.5482	-169.004	12.4468	-36.2469	-132.328	52.0863	44.249	-136.468	52.9886	73.1098	-103.78	58.586	55.2809	
7	0.0583333	-76.0314	33.0329	63.9974	-57.0984	23.6393	42.7674	-37.916	16.4736	17.2278	-26.7588	7.37513	1.4644	-94.9825	52.1503	-14.5073	-87.0028	49.1594	-42.6128	-87.0783	43.5233	-64.3492	-123.163	52.3441	-19.3755	-122.872	49.4641	-45.5747	-120.487	35.3594	-80.59	-140.762	42.337	-8.57855	-150.26	36.1201	-35.2358	-152.008	24.1102	-59.3738	-163.319	29.5952	4.21272	-167.12	22.3562	-14.6087	-171.906	7.02716	-38.5127	-142.011	49.6173	44.7867	-140.445	50.3595	71.4081	-105.046	57.0171	54.2474	
8	0.0666667	-79.3333	28.8669	60.0255	-61.4483	19.6893	37.9626	-47.4902	11.5751	15.5146	-36.8761	2.25676	-6.985	-98.8053	50.4468	-12.2805	-92.635	48.6556	-43.9219	-86.1869	39.9812	-68.8777	-126.114	50.6603	-16.0244	-129.799	46.6238	-49.0093	-127.067	33.2806	-77.9325	-146.294	40.4354	-9.99842	-152.849	34.4092	-35.58	-151.086	18.8143	-62.1155	-165.686	26.102	8.31217	-169.743	19.0141	-14.5518	-173.327	1.36901	-36.7304	-142.623	46.6094	42.9257	-143.725	45.6672	74.4372	-109.771	51.4101	55.0962	
9	0.075	-83.0208	28.0491	59.8658	-60.0995	18.9922	35.7358	-47.1716	10.8455	13.1418	-46.3273	-0.201505	-8.52396	-101.312	51.4398	-14.0719	-99.7652	50.8454	-40.3732	-95.0839	42.2274	-67.7481	-128.487	52.0465	-18.2893	-129.675	48.924	-47.87	-129.906	31.9605	-76.4688	-145.641	41.4047	-11.4092	-155.719	33.4539	-35.3074	-151.806	11.7293	-58.374	-162.661	25.1179	7.6682	-170.655	12.9489	-18.0127	-166.084	-6.78902	-33.7172	-147.511	45.1664	43.8893	-145.523	44.8741	70.5118	-110.935	51.3048	55.4734	
10	0.0833333	-82.7488	29.1403	55.2436	-65.6292	19.3676	31.8314	-54.6461	10.5822	5.27933	-53.4487	0.0814769	-18.628	-107.972	53.5114	-15.708	-101.876	53.5805	-42.6193	-100.552	41.5551	-70.5969	-134.401	54.9245	-18.921	-135.417	51.9157	-46.7078	-137.722	31.4941	-74.8817	-154.318	39.195	-9.01824	-157.287	30.6635	-36.6974	-148.432	2.19876	-53.9202	-164.572	23.4251	6.08329	-168.836	8.57131	-19.333	-157.031	-15.2234	-26.197	-149.702	43.9861	44.2792	-146.504	41.9175	69.377	-115.656	51.746	54.1532	
11	0.0916667	-88.3694	24.2479	56.1586	-66.3871	16.6005	30.0531	-58.3707	8.47401	2.21707	-65.3566	-2.22866	-19.9908	-110.646	53.6253	-16.1412	-106.404	52.4722	-45.8308	-104.834	40.0607	-67.735	-137.856	53.6048	-15.3059	-142.333	51.4318	-48.2415	-139.441	27.2155	-76.8525	-155.783	35.6013	-8.09518	-155.984	23.9355	-36.9074	-148.286	-7.38093	-43.2322	-165.993	18.3763	-0.940929	-165.064	0.644268	-17.357	-148.076	-26.6611	-12.6234	-152.996	42.6713	42.5294	-151.053	38.1655	71.7726	-115.433	47.844	51.6308	
12	0.1	-92.3372	15.3367	51.831	-76.0558	3.8295	28.987	-62.7031	-5.78338	1.97356	-68.0022	-16.5779	-21.7124	-111.754	41.751	-18.3387	-105.809	39.0994	-46.4142	-104.382	24.1482	-67.2536	-137.772	42.5961	-19.0225	-142.203	37.3509	-51.2054	-140.765	14.9366	-74.6971	-159.016	22.2324	-11.6871	-153.373	2.45878	-37.7885	-143.365	-27.0311	-29.9697	-169.993	2.92621	2.16355	-163.154	-18.7437	-12.8758	-141.472	-37.7334	4.38679	-151.459	32.0627	38.8147	-151.049	28.778	72.3312	-119.972	36.6971	53.0156	
13	0.108333	-92.018	1.7359	55.6146	-72.709	-11.5506	30.0763	-63.1663	-24.0621	4.29343	-67.4031	-38.7549	-16.9609	-113.696	20.9245	-18.4741	-105.757	17.2267	-46.8881	-101.431	-4.17173	-70.8721	-137.867	23.304	-25.4434	-137.411	14.1123	-55.0614	-135.67	-10.0678	-76.4188	-155.327	2.17845	-17.3066	-153.962	-20.9721	-33.8282	-141.852	-48.2201	-18.6486	-166.056	-14.673	-3.19391	-157.545	-42.1	-4.08717	-141.276	-48.2811	18.3608	-153.21	20.364	34.6677	-153.218	22.9798	65.9084	-120.946	27.8811	51.3591	
14	0.116667	-91.7146	-7.62678	55.3185	-74.3575	-26.1515	38.7233	-60.3766	-43.7991	17.129	-61.6315	-60.2094	-2.4005	-108.675	-0.0494581	-24.1902	-100.326	-9.42478	-49.0347	-94.2791	-31.925	-67.737	-132.186	0.617823	-27.1342	-131.131	-12.5143	-56.4063	-132.013	-45.5777	-76.6599	-151.5	-19.3988	-18.4922	-149.717	-48.9432	-28.0804	-139.589	-67.7497	-5.8228	-167.678	-34.2762	-2.48033	-158.966	-58.1586	1.62491	-143.284	-59.2589	32.7612	-156.586	10.9791	31.1567	-153.255	14.3276	58.8086	-122.147	16.7801	43.4808	
15	0.125	-92.9202	-9.58371	56.2655	-74.8057	-31.6292	41.8666	-57.1393	-51.8371	23.8175	-55.6391	-70.9843	13.1644	-99.0551	-11.4445	-22.1607	-85.2969	-26.0826	-45.8009	-82.0954	-56.4274	-58.4415	-127.709	-14.1285	-29.0159	-118.756	-36.7414	-56.8563	-115.791	-70.142	-61.267	-144.901	-35.3411	-17.029	-137.818	-65.5006	-18.8553	-132.016	-77.5554	11.6159	-160.514	-47.6051	-0.232354	-147.377	-68.1019	11.1117	-136.556	-61.1389	39.8659	-152.141	2.31544	21.4393	-155.279	12.2626	51.5547	-120.08	14.3896	35.6918	
16	0.133333	-93.7438	3.32958	57.7213	-67.236	-18.6417	45.4592	-50.0612	-36.5625	35.1866	-46.976	-61.0704	20.1963	-92.4102	-11.7074	-19.2164	-73.2516	-32.7378	-40.0298	-61.1759	-58.8709	-36.2161	-117.379	-24.433	-27.2593	-102.347	-50.1461	-47.3711	-89.249	-80.663	-32.3279	-124.306	-47.7212	-12.0694	-114.535	-76.1817	-1.72764	-110.126	-71.8584	33.2273	-139.418	-59.5189	6.47902	-126.058	-71.7471	23.9475	-123.001	-56.215	48.8258	-151.873	-4.56844	19.6646	-157.992	7.53717	42.2283	-125.289	14.594	30.3204	
17	0.141667	-94.8569	24.0878	54.7934	-66.0321	12.3613	53.0085	-41.0273	-3.89247	45.172	-32.7104	-30.935	36.3583	-78.5111	-2.5984	-14.6412	-51.8604	-23.0196	-26.7328	-35.13	-39.6885	-9.27507	-92.6258	-28.0723	-24.2518	-67.672	-46.8039	-29.0102	-52.4804	-65.9318	4.52191	-98.3877	-50.0276	-0.97868	-79.8074	-66.2404	15.9645	-80.2446	-49.7699	47.404	-110.398	-57.1866	17.2017	-94.7468	-61.271	42.4904	-101.456	-43.7559	60.4034	-140.363	-12.4161	15.6594	-156.762	-2.54028	37.7361	-128.403	16.0401	27.4806	
